<svg t="1709615288108" class="icon" viewBox="0 0 1122 1024" version="1.1" xmlns="http://www.w3.org/2000/svg" p-id="1081" width="200" height="200"><path d="M1008.650301 336.528085c-42.072945-17.800092-68.222898-57.801753-68.222898-104.40563v-18.12373c8.155678-75.084024-27.05614-146.802213-90.489194-183.826404l-5.69603-3.818929-3.624746-2.200739C772.718173-12.936265 691.93812-6.981326 629.605434 39.752007c-40.972575 31.133979-95.991041 31.133979-136.963617 0l-1.553462-1.10037a203.594215 203.594215 0 0 0-208.034529-15.275715l-6.990582 3.560019C210.753089 64.219042 174.829267 138.008514 184.408953 214.904912l0.582548 4.789842 1.229825 3.689474c0.129455 1.35928 0.129455 4.272022 0.129455 6.472761 0 45.503508-27.120867 85.310986-69.064357 101.42816l-0.970914 0.388366C47.768974 359.765296 3.23638 424.363448 0 500.353659v15.664081c3.106925 74.048382 49.387164 140.070542 117.998428 168.421233 41.360941 18.447368 68.093443 59.096305 68.352353 103.823082-0.129455 1.035642-0.323638 2.071283-0.453093 3.171653-0.647276 4.142567-1.553463 10.226962-1.812373 17.476454-8.414589 75.860755 27.444505 148.355675 91.977929 185.185684l6.21385 3.171652c26.538319 14.498984 56.830839 21.877931 90.10083 21.877931 42.396583 0 80.32696-14.757894 108.612924-27.638688l4.919298-2.265466 4.33675-3.301108c40.972575-31.133979 95.991041-31.133979 136.963617 0l1.553462 1.100369a203.658943 203.658943 0 0 0 207.969802 15.275716l2.718559-1.35928 8.220406-5.501847c63.368327-37.024191 98.580146-108.74238 90.424467-183.826404v-18.12373c0-44.985687 26.797229-85.958262 68.352353-104.470358 68.222898-28.221237 112.496581-92.689933 115.668234-168.421233v-15.987719c0-71.524006-45.503508-139.0349-113.467495-168.162323z m16.376085 181.043117c-1.877101 37.218374-23.301939 68.546536-56.054108 81.945151l-1.165097 0.517821c-77.025852 33.917266-126.86611 109.842749-126.86611 193.535545v24.013942l0.388366 2.97747c4.725115 37.86565-12.298245 73.789472-43.496952 91.589564l-7.120037 4.59566a106.606369 106.606369 0 0 1-105.700182-8.738227c-74.436748-55.98938-173.534715-56.960294-248.812922-2.848015-19.547737 8.673499-42.008217 16.893905-63.886148 16.893906-17.023361 0-31.781255-3.430563-43.950045-10.226962l-5.178209-2.653832c-30.486703-17.994275-47.121698-53.594459-42.396583-91.007016l0.388366-2.977469v-3.042198c0-1.294552 0.323638-3.430563 0.712004-5.95494 0.647276-4.401477 1.61819-10.421145 1.61819-17.346999 0-83.692796-49.77553-159.618279-126.86611-193.535545l-1.165097-0.517821c-33.658356-13.78698-56.507201-45.891873-58.384301-82.009878v-9.45023c1.877101-37.088919 23.107756-68.287625 55.665742-81.815696 79.420774-30.810341 130.749766-106.088548 130.749766-191.852627 0-7.961496 0-18.38264-3.042198-30.357248-3.301108-36.182732 13.204432-70.164726 42.784949-87.64118l3.301108-1.682918a106.684042 106.684042 0 0 1 108.224559 7.508403c75.990211 57.154477 177.742009 56.960294 253.343854-0.453093 31.263434-23.431394 70.099998-26.667774 104.340902-8.802955l5.048754 3.365836 2.783287 1.747645c31.133979 17.800092 48.222067 53.723914 43.496952 91.589564l-0.388366 2.97747v24.013942c0 84.987348 50.03444 161.042286 127.254476 193.729728 32.040166 13.722253 54.435918 46.150784 54.435917 78.838226v12.880793z" p-id="1082"></path><path d="M561.058898 335.816082c-97.156138 0-176.188546 79.032408-176.188546 176.188546s79.032408 176.188546 176.188546 176.188546S737.247445 609.160766 737.247445 512.004628s-79.032408-176.188546-176.188547-176.188546z m0 255.285682c-43.626407 0-79.097136-35.470729-79.097136-79.097136s35.470729-79.097136 79.097136-79.097136S640.156034 468.378221 640.156034 512.004628s-35.470729 79.097136-79.097136 79.097136z" p-id="1083"></path></svg>